<svg aria-hidden="true" style="position: absolute; width: 0; height: 0; overflow: hidden;" version="1.1" xmlns="http://www.w3.org/2000/svg" xmlns:xlink="http://www.w3.org/1999/xlink">
<defs>
<symbol id="icon-ant-design_facebook-filled" viewBox="0 0 32 32">
<path fill="#fff" style="fill: var(--color1, #fff)" d="M27.492 3.499h-22.992c-0.553 0-1 0.447-1 1v22.992c0 0.553 0.447 1 1 1h22.992c0.553 0 1-0.447 1-1v-22.992c0-0.553-0.447-1-1-1zM24.605 10.793h-1.996c-1.565 0-1.868 0.743-1.868 1.837v2.409h3.736l-0.487 3.771h-3.249v9.681h-3.896v-9.678h-3.258v-3.774h3.258v-2.78c0-3.227 1.971-4.986 4.851-4.986 1.381 0 2.565 0.103 2.912 0.15v3.371h-0.003z"></path>
</symbol>
<symbol id="icon-ant-design_linkedin-filled" viewBox="0 0 32 32">
<path fill="#fff" style="fill: var(--color1, #fff)" d="M27.493 3.499h-22.992c-0.553 0-1 0.447-1 1v22.992c0 0.553 0.447 1 1 1h22.992c0.553 0 1-0.447 1-1v-22.992c0-0.553-0.447-1-1-1zM10.914 24.795h-3.708v-11.927h3.708v11.927zM9.061 11.237c-0.425 0-0.841-0.126-1.194-0.362s-0.629-0.572-0.792-0.965-0.205-0.825-0.122-1.242c0.083-0.417 0.288-0.8 0.588-1.1s0.684-0.505 1.101-0.588c0.417-0.083 0.849-0.040 1.242 0.122s0.728 0.438 0.965 0.792c0.236 0.353 0.362 0.769 0.362 1.194-0.003 1.187-0.965 2.149-2.149 2.149zM24.797 24.795h-3.705v-5.801c0-1.384-0.025-3.161-1.927-3.161-1.927 0-2.224 1.506-2.224 3.061v5.901h-3.702v-11.927h3.555v1.631h0.050c0.494-0.937 1.703-1.928 3.508-1.928 3.755 0 4.445 2.471 4.445 5.682v6.542z"></path>
</symbol>
<symbol id="icon-ant-design_twitter-outlined" viewBox="0 0 32 32">
<path fill="#fff" style="fill: var(--color1, #fff)" d="M28.991 7.944c-0.956 0.412-1.996 0.709-3.068 0.825 1.113-0.661 1.946-1.705 2.343-2.937-1.044 0.621-2.188 1.056-3.38 1.287-0.498-0.533-1.101-0.957-1.771-1.247s-1.392-0.438-2.122-0.437c-2.952 0-5.326 2.393-5.326 5.33 0 0.412 0.050 0.825 0.131 1.221-4.42-0.231-8.363-2.343-10.984-5.576-0.478 0.816-0.728 1.744-0.725 2.69 0 1.849 0.94 3.48 2.374 4.439-0.845-0.033-1.67-0.266-2.409-0.678v0.066c0 2.59 1.831 4.736 4.271 5.23-0.458 0.119-0.929 0.18-1.403 0.181-0.347 0-0.675-0.034-1.006-0.081 0.675 2.112 2.64 3.646 4.98 3.696-1.831 1.434-4.124 2.277-6.613 2.277-0.447 0-0.859-0.016-1.287-0.066 2.362 1.515 5.164 2.39 8.182 2.39 9.797 0 15.158-8.116 15.158-15.161 0-0.231 0-0.462-0.016-0.694 1.037-0.759 1.946-1.699 2.671-2.755z"></path>
</symbol>
<symbol id="icon-burger" viewBox="0 0 52 32">
<path fill="#fff" style="fill: var(--color1, #fff)" d="M0 0h52.148v5.235h-52.148v-5.235zM13.037 13.086h39.111v5.234h-39.111v-5.235zM29.333 26.173h22.815v5.235h-22.815v-5.235z"></path>
</symbol>
<symbol id="icon-bx_bx-map" viewBox="0 0 32 32">
<path fill="#fff" style="fill: var(--color1, #fff)" d="M16 18.667c2.941 0 5.333-2.392 5.333-5.333s-2.392-5.333-5.333-5.333-5.333 2.392-5.333 5.333c0 2.941 2.392 5.333 5.333 5.333zM16 10.667c1.471 0 2.667 1.196 2.667 2.667s-1.196 2.667-2.667 2.667-2.667-1.196-2.667-2.667c0-1.471 1.196-2.667 2.667-2.667z"></path>
<path fill="#fff" style="fill: var(--color1, #fff)" d="M15.227 29.085c0.226 0.161 0.496 0.248 0.773 0.248s0.548-0.087 0.773-0.248c0.405-0.287 9.932-7.165 9.893-15.752 0-5.881-4.785-10.667-10.667-10.667s-10.667 4.785-10.667 10.66c-0.039 8.593 9.488 15.472 9.893 15.759zM16 5.333c4.412 0 8 3.588 8 8.007 0.028 5.917-5.851 11.231-8 12.973-2.148-1.744-8.028-7.059-8-12.98 0-4.412 3.588-8 8-8z"></path>
</symbol>
<symbol id="icon-ic_baseline-phone-android" viewBox="0 0 32 32">
<path fill="#fff" style="fill: var(--color1, #fff)" d="M21.333 1.333h-10.667c-2.213 0-4 1.787-4 4v21.333c0 2.213 1.787 4 4 4h10.667c2.213 0 4-1.787 4-4v-21.333c0-2.213-1.787-4-4-4zM18.667 28h-5.333v-1.333h5.333v1.333zM23 24h-14v-18.667h14v18.667z"></path>
</symbol>
<symbol id="icon-ituitive" viewBox="0 0 31 32">
<path fill="#02e4c0" style="fill: var(--color2, #02e4c0)" d="M12.853 14.288c1.578 2.624 1.346 5.712-0.541 6.96-1.887 1.216-4.702 0.080-6.295-2.544-1.578-2.624-1.33-5.744 0.557-6.96s4.702-0.080 6.279 2.544zM15.467 25.2c3.093 0 3.867-1.2 3.867-1.2s-0.773 3.2-3.867 3.2c-3.093 0-3.867-3.152-3.867-3.2 0 0 0.773 1.2 3.867 1.2zM24.36 11.744c1.887 1.216 2.134 4.336 0.557 6.96-1.593 2.624-4.408 3.76-6.295 2.544-1.887-1.248-2.119-4.336-0.541-6.96s4.393-3.76 6.279-2.544zM15.467 28.8c3.867 0 12.373-8.224 12.373-14.4s-5.553-11.2-12.373-11.2c-6.821 0-12.373 5.024-12.373 11.2s8.507 14.4 12.373 14.4zM15.467 0c8.507 0 15.467 6.464 15.467 14.4 0 6.528-8.785 17.6-15.467 17.6s-15.467-11.072-15.467-17.6c0-7.936 6.96-14.4 15.467-14.4z"></path>
</symbol>
<symbol id="icon-logos_airbnb" viewBox="0 0 30 32">
<path fill="#e0565b" style="fill: var(--color3, #e0565b)" d="M27.466 25.745c-0.223 1.655-1.336 3.087-2.896 3.724-0.764 0.318-1.591 0.414-2.419 0.318-0.795-0.095-1.591-0.35-2.418-0.827-1.146-0.637-2.291-1.623-3.628-3.087 2.1-2.578 3.373-4.933 3.851-7.033 0.223-0.987 0.255-1.878 0.159-2.705-0.127-0.795-0.414-1.528-0.859-2.164-0.987-1.432-2.641-2.259-4.487-2.259s-3.501 0.859-4.487 2.259c-0.446 0.636-0.732 1.369-0.859 2.164-0.127 0.828-0.095 1.75 0.159 2.705 0.477 2.1 1.782 4.487 3.851 7.064-1.305 1.464-2.482 2.451-3.628 3.087-0.827 0.477-1.623 0.732-2.418 0.827-0.82 0.092-1.65-0.018-2.419-0.318-1.559-0.636-2.673-2.069-2.896-3.724-0.095-0.795-0.032-1.591 0.286-2.482 0.095-0.318 0.255-0.636 0.414-1.018 0.223-0.509 0.478-1.050 0.732-1.591l0.032-0.063c2.196-4.742 4.551-9.579 7.001-14.289l0.095-0.191c0.255-0.477 0.509-0.986 0.764-1.463 0.254-0.509 0.541-0.987 0.891-1.401 0.668-0.764 1.559-1.177 2.546-1.177s1.878 0.414 2.546 1.178c0.35 0.414 0.636 0.891 0.891 1.401 0.255 0.477 0.509 0.986 0.764 1.463l0.096 0.191c2.418 4.741 4.773 9.578 6.969 14.32v0.032c0.255 0.509 0.477 1.083 0.732 1.591 0.159 0.382 0.318 0.7 0.414 1.018 0.255 0.827 0.35 1.623 0.223 2.45h-0zM14.769 24.249c-1.718-2.164-2.832-4.201-3.214-5.919-0.159-0.732-0.191-1.369-0.095-1.941 0.063-0.509 0.255-0.955 0.509-1.337 0.605-0.858 1.623-1.4 2.801-1.4s2.228 0.51 2.8 1.4c0.254 0.382 0.445 0.828 0.509 1.337 0.095 0.573 0.064 1.241-0.095 1.941-0.382 1.686-1.496 3.723-3.214 5.919zM29.121 22.595c-0.159-0.382-0.318-0.795-0.477-1.146-0.255-0.573-0.509-1.114-0.732-1.623l-0.032-0.032c-2.196-4.774-4.551-9.611-7.033-14.384l-0.095-0.192c-0.255-0.477-0.509-0.987-0.764-1.496-0.318-0.573-0.637-1.177-1.146-1.75-1.019-1.273-2.482-1.973-4.042-1.973-1.591 0-3.023 0.7-4.073 1.91-0.477 0.573-0.827 1.177-1.145 1.751-0.255 0.509-0.509 1.018-0.764 1.496l-0.095 0.19c-2.45 4.773-4.837 9.611-7.033 14.384l-0.032 0.064c-0.223 0.509-0.478 1.050-0.732 1.623-0.17 0.377-0.329 0.759-0.477 1.146-0.414 1.177-0.541 2.291-0.382 3.437 0.35 2.387 1.941 4.392 4.137 5.283 0.827 0.35 1.686 0.509 2.578 0.509 0.255 0 0.573-0.032 0.827-0.064 1.050-0.128 2.132-0.477 3.182-1.082 1.305-0.732 2.546-1.782 3.946-3.309 1.4 1.528 2.673 2.578 3.946 3.309 1.050 0.605 2.132 0.954 3.182 1.082 0.255 0.032 0.573 0.064 0.827 0.064 0.891 0 1.782-0.159 2.578-0.509 2.228-0.891 3.787-2.928 4.137-5.283 0.255-1.114 0.127-2.227-0.286-3.405l0 0z"></path>
</symbol>
<symbol id="icon-logos_android-icon" viewBox="0 0 27 32">
<path fill="#fff" style="fill: var(--color1, #fff)" d="M8.281 0.091c-0.155 0.001-0.307 0.041-0.443 0.115-0.446 0.247-0.609 0.819-0.362 1.265l1.006 1.816c-2.424 1.499-4.030 4.061-4.030 6.984v0.543c-0.466-0.536-1.15-0.874-1.914-0.874-1.401 0-2.538 1.137-2.538 2.538v7.818c0 1.401 1.137 2.538 2.538 2.538 0.764 0 1.449-0.338 1.914-0.874v1.095c0 1.476 1.208 2.684 2.685 2.684h0.681v3.478c0 1.401 1.137 2.538 2.538 2.538s2.538-1.137 2.538-2.538v-3.478h1.178v3.478c0 1.401 1.137 2.538 2.538 2.538s2.538-1.137 2.538-2.538v-3.478h0.681c1.476 0 2.684-1.208 2.684-2.684v-1.095c0.465 0.536 1.15 0.874 1.914 0.874 1.401 0 2.538-1.137 2.538-2.538v-7.818c0-1.401-1.137-2.538-2.538-2.538-0.764 0-1.449 0.338-1.914 0.874v-0.477c0-0.027 0-0.049 0-0.066 0-2.923-1.61-5.482-4.032-6.981l1.009-1.819c0.247-0.445 0.083-1.018-0.362-1.265-0.136-0.075-0.288-0.114-0.443-0.115-0.329-0.003-0.652 0.17-0.822 0.477l-1.055 1.906c-1.031-0.381-2.154-0.589-3.325-0.589s-2.295 0.206-3.326 0.586l-1.055-1.903c-0.17-0.307-0.493-0.48-0.822-0.477z"></path>
<path fill="#a4c639" style="fill: var(--color4, #a4c639)" d="M2.538 10.602c-1.045 0-1.877 0.832-1.877 1.877v7.818c0 1.045 0.832 1.877 1.877 1.877s1.877-0.832 1.877-1.877v-7.818c0-1.045-0.832-1.877-1.877-1.877zM24.428 10.602c-1.045 0-1.877 0.832-1.877 1.877v7.818c0 1.045 0.832 1.877 1.877 1.877s1.877-0.832 1.877-1.877v-7.818c0-1.045-0.832-1.877-1.877-1.877z"></path>
<path fill="#a4c639" style="fill: var(--color4, #a4c639)" d="M10.356 19.523c-1.045 0-1.877 0.832-1.877 1.877v7.818c0 1.045 0.832 1.877 1.877 1.877s1.877-0.832 1.877-1.877v-7.818c0-1.045-0.832-1.877-1.877-1.877zM16.61 19.523c-1.045 0-1.877 0.832-1.877 1.877v7.818c0 1.045 0.832 1.877 1.877 1.877s1.877-0.832 1.877-1.877v-7.818c0-1.045-0.832-1.877-1.877-1.877z"></path>
<path fill="#a4c639" style="fill: var(--color4, #a4c639)" d="M8.286 0.752c-0.044 0.001-0.088 0.012-0.126 0.034-0.134 0.074-0.178 0.228-0.104 0.362l1.322 2.389c-2.544 1.324-4.262 3.839-4.265 6.726h16.739c-0.003-2.887-1.722-5.402-4.265-6.726l1.322-2.388c0.074-0.134 0.030-0.288-0.103-0.362-0.039-0.022-0.082-0.034-0.126-0.034-0.095-0.001-0.185 0.046-0.236 0.138l-1.339 2.414c-1.096-0.486-2.325-0.759-3.621-0.759s-2.526 0.273-3.621 0.759l-1.339-2.414c-0.023-0.042-0.057-0.078-0.098-0.102s-0.089-0.037-0.137-0.036h-0zM5.113 10.924v12.132c-0.001 0.266 0.051 0.529 0.153 0.775s0.25 0.469 0.439 0.657c0.188 0.188 0.411 0.337 0.657 0.439s0.509 0.153 0.775 0.153h12.692c0.266 0.001 0.529-0.051 0.775-0.153s0.469-0.25 0.657-0.439c0.188-0.188 0.337-0.411 0.439-0.657s0.153-0.509 0.153-0.775v-12.132l-16.739-0z"></path>
<path fill="#fff" style="fill: var(--color1, #fff)" d="M9.62 5.802c-0.382 0-0.698 0.316-0.698 0.698s0.316 0.698 0.698 0.698c0.382 0 0.698-0.316 0.698-0.698s-0.316-0.698-0.698-0.698zM17.346 5.802c-0.382 0-0.698 0.316-0.698 0.698s0.316 0.698 0.698 0.698c0.382 0 0.698-0.316 0.698-0.698s-0.316-0.698-0.698-0.698z"></path>
</symbol>
<symbol id="icon-logos_apiary" viewBox="0 0 31 32">
<path fill="#13a049" style="fill: var(--color5, #13a049)" opacity="0.5" d="M15.7 4.533v9.047l7.85-4.533v-9.047l-7.85 4.533z"></path>
<path fill="#a2cc39" style="fill: var(--color6, #a2cc39)" opacity="0.5" d="M15.7 4.533l-7.85-4.533v9.066l7.85 4.533v-9.066z"></path>
<path fill="#000" style="fill: var(--color7, #000)" opacity="0.9" d="M23.55 0l-7.85 4.533-7.85-4.533-7.85 4.533 15.7 9.066 15.691-9.066-7.841-4.533z"></path>
<path fill="#000" style="fill: var(--color7, #000)" d="M15.7 13.598l-15.7-9.066v9.066l7.85 4.533v9.056l7.85 4.533 7.85-4.533v-9.056l7.841-4.533v-9.066l-15.691 9.066z"></path>
<path fill="#000" style="fill: var(--color7, #000)" d="M15.7 13.598v18.122l7.85-4.533v-9.056l7.841-4.533v-9.066l-15.691 9.066z"></path>
<path fill="#231f20" style="fill: var(--color8, #231f20)" opacity="0.05" d="M15.7 22.655v9.066l7.85-4.533-7.85-4.533z"></path>
<path fill="#231f20" style="fill: var(--color8, #231f20)" opacity="0.1" d="M15.7 31.739v-9.066l-7.85 4.533 7.85 4.533z"></path>
<path fill="#231f20" style="fill: var(--color8, #231f20)" opacity="0.05" d="M7.85 9.066l-7.85 4.533 7.85 4.533 7.85-4.533-7.85-4.533z"></path>
<path fill="#231f20" style="fill: var(--color8, #231f20)" opacity="0.05" d="M23.55 9.066l-7.85 4.533 7.85 4.533 7.841-4.533-7.841-4.533z"></path>
</symbol>
<symbol id="icon-logos_apple-app-store" viewBox="0 0 31 32">
<path fill="#000" style="fill: var(--color7, #000)" d="M6.371 0h16.349c3.519 0 6.371 2.852 6.371 6.371v16.349c0 3.519-2.852 6.371-6.371 6.371h-16.349c-3.519 0-6.371-2.852-6.371-6.371v-16.349c0-3.519 2.852-6.371 6.371-6.371z"></path>
<path fill="#fff" style="fill: var(--color1, #fff)" d="M9.323 21.115l0.003 0.001-0.995 1.723c-0.363 0.629-1.167 0.844-1.796 0.481s-0.844-1.167-0.481-1.796l0.803-1.391c0.126-0.18 0.435-0.492 1.055-0.433 0 0 1.459 0.158 1.564 0.916 0 0 0.014 0.249-0.153 0.499zM23.43 16.715h-3.102c-0.211-0.014-0.303-0.090-0.34-0.134l-0.002-0.004-3.32-5.751-0.004 0.003-0.199-0.285c-0.326-0.499-0.845 0.777-0.845 0.777-0.619 1.422 0.088 3.039 0.334 3.528l4.612 7.988c0.363 0.629 1.167 0.844 1.796 0.481s0.844-1.167 0.481-1.796l-1.153-1.997c-0.022-0.048-0.061-0.18 0.175-0.18h1.567c0.726 0 1.315-0.589 1.315-1.315s-0.589-1.315-1.315-1.315v0zM17.406 18.502c0 0 0.166 0.842-0.475 0.842h-11.466c-0.726 0-1.315-0.589-1.315-1.315s0.589-1.315 1.315-1.315h2.948c0.476-0.027 0.589-0.302 0.589-0.302l0.003 0.001 3.847-6.665c0.070-0.129 0.012-0.25 0.002-0.27l-1.271-2.201c-0.363-0.629-0.148-1.433 0.481-1.796s1.433-0.148 1.796 0.481l0.589 1.021 0.588-1.019c0.363-0.629 1.167-0.844 1.796-0.481s0.844 1.167 0.481 1.796l-5.354 9.274c-0.023 0.056-0.031 0.145 0.144 0.161h3.2l0.001 0.031c0 0 1.85 0.029 2.102 1.756z"></path>
</symbol>
<symbol id="icon-logos_basecamp" viewBox="0 0 39 32">
<path fill="#b6deff" style="fill: var(--color9, #b6deff)" d="M19.275 0c-10.312 0-18.391 13.12-19.156 24.201 3.236 5.616 11.040 7.727 19.156 7.727s15.92-2.111 19.154-7.727c-0.765-11.081-8.843-24.201-19.154-24.201z"></path>
<path fill="#6c6" style="fill: var(--color10, #6c6)" d="M35.735 21.562c0 0-2.278-4.924-4.592-7.797-2.317-2.874-5.146-6.003-6.818-6.003s-6.345 8.275-8.489 8.275c-2.144 0-3.259-3.751-5.895-3.751-2.638 0-6.828 9.046-6.828 9.046l-0.284 1.533c0 0 1.456 6.454 16.686 6.454s16.448-6.348 16.448-6.348l-0.226-1.408z"></path>
<path fill="#17ad49" style="fill: var(--color11, #17ad49)" d="M16.073 19.567c-2.365 0-3.578-2.334-4.235-3.774-0.591-1.298-0.694-3.347-2.371-3.404 0.165-0.065 0.323-0.104 0.472-0.104 2.636 0 3.751 3.751 5.895 3.751s6.817-8.275 8.489-8.275c0.315 0 0.67 0.111 1.055 0.309-0.285-0.038-0.65-0.011-0.931 0.271-0.54 0.541-5.446 11.226-8.374 11.226z"></path>
</symbol>
<symbol id="icon-logos_ibm" viewBox="0 0 80 32">
<path fill="#1f70c1" style="fill: var(--color12, #1f70c1)" d="M0 0v2.187h15.557v-2.187h-15.557zM17.761 0v2.187h22.169c0 0-2.265-2.187-5.264-2.187h-16.905zM44.279 0v2.187h13.412l-0.796-2.187h-12.616zM67.306 0l-0.796 2.187h13.29v-2.187h-12.494zM0 4.254v2.187h15.557v-2.187h-15.557zM17.761 4.257v2.184h24.741c0 0-0.289-1.683-0.793-2.184h-23.948zM44.279 4.257v2.184h14.882l-0.737-2.184h-14.145zM65.714 4.257l-0.737 2.184h14.823v-2.184h-14.086zM4.471 8.507v2.19h6.737v-2.19h-6.737zM22.231 8.507v2.19h6.737v-2.19h-6.737zM35.522 8.507v2.19h6.737c0 0 0.428-1.157 0.428-2.19l-7.165 0zM48.749 8.507v2.19h11.945l-0.796-2.19-11.148 0zM64.246 8.507l-0.799 2.19h12.004v-2.19h-11.205zM4.471 12.764v2.187h6.737v-2.187h-6.737zM22.231 12.764v2.187h17.208c0 0 1.44-1.122 1.898-2.187l-19.106 0zM48.749 12.764v2.187h6.737v-1.218l0.428 1.218h12.341l0.459-1.218v1.218h6.737v-2.187h-12.647l-0.671 1.853-0.675-1.853h-12.709zM4.471 17.017v2.187h6.737v-2.187h-6.737zM22.231 17.017v2.187h19.106c-0.459-1.061-1.898-2.187-1.898-2.187h-17.208zM48.749 17.017v2.187h6.737v-2.187h-6.737zM56.71 17.017l0.815 2.187h9.253l0.774-2.187h-10.842zM68.714 17.017v2.187h6.737v-2.187h-6.737zM4.471 21.271v2.187h6.737v-2.187h-6.737zM22.231 21.271v2.187h6.737v-2.187h-6.737zM35.522 21.271v2.187h7.165c0-1.032-0.428-2.187-0.428-2.187h-6.737zM48.749 21.271v2.187h6.737v-2.187h-6.737zM58.24 21.271l0.79 2.187h6.203l0.796-2.187h-7.789zM68.714 21.271v2.187h6.737v-2.187h-6.737zM0.122 25.525v2.19h15.557v-2.19l-15.557 0zM17.761 25.525v2.19h23.948c0.504-0.502 0.793-2.19 0.793-2.19l-24.741 0zM44.4 25.525v2.19h11.086v-2.19l-11.086 0zM59.773 25.525l0.812 2.19h3.156l0.762-2.19-4.73 0zM68.714 25.525v2.19h11.208v-2.19l-11.208 0zM0.122 29.782v2.187h15.557v-2.187h-15.557zM17.761 29.782v2.184h16.905c2.999 0 5.264-2.184 5.264-2.184l-22.169 0zM44.4 29.782v2.187h11.086v-2.187h-11.086zM61.312 29.782l0.78 2.181 0.134 0.003 0.793-2.184-1.708 0zM68.714 29.782v2.187h11.208v-2.187h-11.208z"></path>
</symbol>
<symbol id="icon-rules" viewBox="0 0 69 32">
<path fill="#02e4c0" style="fill: var(--color2, #02e4c0)" d="M53.516 0c-4.143 0-8.056 1.665-10.847 4.55l-20.227 18.558c-1.841 1.903-4.287 2.944-6.905 2.944-5.38 0-9.782-4.491-9.782-10.052s4.402-10.052 9.782-10.052c2.618 0 5.064 1.041 7.020 3.063l3.251 2.974 4.402-3.985-3.683-3.301c-1.441-1.495-3.154-2.68-5.040-3.486s-3.909-1.219-5.95-1.212c-8.574 0-15.537 7.197-15.537 16s6.963 16 15.537 16c4.143 0 8.056-1.665 10.847-4.55l20.227-18.558c1.841-1.903 4.287-2.944 6.905-2.944 5.38 0 9.782 4.491 9.782 10.052s-4.402 10.052-9.782 10.052c-2.589 0-5.064-1.041-7.020-3.063l-3.338-3.004-4.316 3.985 3.683 3.331c1.445 1.488 3.159 2.666 5.045 3.467s3.907 1.21 5.946 1.202c8.574 0 15.537-7.167 15.537-15.97 0-8.922-6.963-16-15.537-16z"></path>
</symbol>
<symbol id="icon-single" viewBox="0 0 35 32">
<path fill="#02e4c0" style="fill: var(--color2, #02e4c0)" d="M9.528 18.145l5.031-5.031-11.004-10.987c-0.853-0.853-2.329-0.622-2.862 0.48-1.262 2.649-0.8 5.902 1.387 8.107l7.449 7.431zM21.582 14.927c2.72 1.262 6.542 0.373 9.369-2.453 3.396-3.396 4.053-8.267 1.44-10.88-2.595-2.596-7.467-1.956-10.88 1.44-2.827 2.827-3.715 6.649-2.453 9.369l-16.107 16.107c-0.332 0.332-0.519 0.783-0.519 1.253s0.187 0.921 0.519 1.253c0.332 0.332 0.783 0.519 1.253 0.519s0.921-0.187 1.253-0.519l11.004-10.969 10.987 10.987c0.165 0.165 0.36 0.295 0.575 0.384s0.446 0.135 0.678 0.135c0.233 0 0.463-0.046 0.678-0.135s0.41-0.22 0.575-0.384c0.165-0.165 0.295-0.36 0.384-0.575s0.135-0.446 0.135-0.678c0-0.233-0.046-0.463-0.135-0.678s-0.22-0.41-0.384-0.575l-10.987-10.987 2.613-2.613z"></path>
</symbol>
</defs>
</svg>
